<svg width="20" height="20" viewBox="0 0 20 20" fill="none" xmlns="http://www.w3.org/2000/svg">
<circle cx="10" cy="10" r="10" fill="#06D10E"/>
<path d="M13.1999 12.68V14H7.00789V12.956L10.3439 9.788C10.7199 9.428 10.9719 9.116 11.0999 8.852C11.2359 8.58 11.3039 8.312 11.3039 8.048C11.3039 7.656 11.1719 7.356 10.9079 7.148C10.6439 6.94 10.2559 6.836 9.74389 6.836C8.88789 6.836 8.23189 7.128 7.77589 7.712L6.68389 6.872C7.01189 6.432 7.45189 6.092 8.00389 5.852C8.56389 5.604 9.18789 5.48 9.87589 5.48C10.7879 5.48 11.5159 5.696 12.0599 6.128C12.6039 6.56 12.8759 7.148 12.8759 7.892C12.8759 8.348 12.7799 8.776 12.5879 9.176C12.3959 9.576 12.0279 10.032 11.4839 10.544L9.23989 12.68H13.1999Z" fill="white"/>
</svg>
