<svg width="30" height="32" viewBox="0 0 30 32" fill="none" xmlns="http://www.w3.org/2000/svg">
<path fill-rule="evenodd" clip-rule="evenodd" d="M12.3466 2.71535C8.65972 2.71535 5.69914 5.76218 5.69914 9.55754C5.69914 13.352 8.66012 16.3997 12.3466 16.3997C16.034 16.3997 18.9941 13.3524 18.9941 9.55754C18.9941 5.76177 16.0344 2.71535 12.3466 2.71535ZM12.3466 4.64526C14.9989 4.64526 17.1191 6.82763 17.1191 9.55754C17.1191 12.2866 14.9984 14.4698 12.3466 14.4698C9.69565 14.4698 7.57414 12.2862 7.57414 9.55754C7.57414 6.82811 9.69519 4.64526 12.3466 4.64526ZM12.3467 18.7418C6.05923 18.7418 2.50049 19.9698 2.50049 23.4495C2.50049 26.933 6.07502 28.1842 12.3467 28.1842L13.1511 28.1771C18.9355 28.0731 22.193 26.804 22.193 23.4765C22.193 20.0687 18.7722 18.7972 12.7519 18.7435L12.3467 18.7418ZM12.3467 20.6717C17.5986 20.6717 20.318 21.6236 20.318 23.4765C20.318 25.3179 17.6052 26.2543 12.3467 26.2543C7.09491 26.2543 4.37549 25.3024 4.37549 23.4495C4.37549 21.6571 6.94219 20.7229 11.9258 20.6737L12.3467 20.6717ZM24.005 10.3311C24.4796 10.3311 24.8718 10.6941 24.9339 11.1651L24.9425 11.296V12.9106H26.5626C27.0804 12.9106 27.5001 13.3426 27.5001 13.8755C27.5001 14.3641 27.1474 14.7678 26.6898 14.8317L26.5626 14.8405H24.9425V16.4553C24.9425 16.9883 24.5227 17.4203 24.005 17.4203C23.5303 17.4203 23.1381 17.0573 23.076 16.5863L23.0675 16.4553V14.8405H21.4501C20.9324 14.8405 20.5126 14.4085 20.5126 13.8755C20.5126 13.387 20.8653 12.9833 21.3229 12.9194L21.4501 12.9106H23.0675V11.296C23.0675 10.7631 23.4872 10.3311 24.005 10.3311Z" fill="#333333"/>
</svg>
