<svg width="30" height="32" viewBox="0 0 30 32" fill="none" xmlns="http://www.w3.org/2000/svg">
<path fill-rule="evenodd" clip-rule="evenodd" d="M3.59754 3.4608L3.47073 3.44715C3.00925 3.42978 2.59483 3.76569 2.51389 4.24705L2.50062 4.37758C2.48375 4.85257 2.8101 5.27913 3.27777 5.36244L5.16403 5.69823L6.30719 19.7168L6.33085 19.9275C6.56085 21.526 7.89666 22.7278 9.48765 22.7278H23.1277L23.3331 22.7211C24.8285 22.6228 26.0684 21.4588 26.2867 19.9125L27.473 11.4744L27.4935 11.2805C27.6026 9.73779 26.4153 8.39883 24.8864 8.39883H7.26528L6.97187 4.79409L6.94975 4.65146C6.8642 4.2805 6.57122 3.99055 6.19754 3.92398L3.59754 3.4608ZM9.34255 20.7898C8.72346 20.72 8.22836 20.2083 8.17548 19.5559L7.4226 10.3287H24.8862L24.9964 10.3371C25.3911 10.3975 25.6762 10.7774 25.6171 11.198L24.4309 19.6356L24.4011 19.7864C24.2507 20.3764 23.7314 20.7979 23.1275 20.7979H9.48747L9.34255 20.7898ZM7.38557 26.7154C7.38557 25.6397 8.23267 24.7662 9.27807 24.7662C10.3233 24.7662 11.1718 25.6395 11.1718 26.7154C11.1718 27.7914 10.3232 28.6633 9.27807 28.6633C8.23281 28.6633 7.38557 27.7913 7.38557 26.7154ZM21.45 26.7154C21.45 25.6395 22.2984 24.7662 23.3437 24.7662C24.389 24.7662 25.2375 25.6395 25.2375 26.7154C25.2375 27.7914 24.3888 28.6633 23.3437 28.6633C22.2986 28.6633 21.45 27.7914 21.45 26.7154ZM22.0606 14.1191C22.0606 13.5862 21.6409 13.1541 21.1231 13.1541H17.6569L17.5297 13.1629C17.0721 13.2268 16.7194 13.6306 16.7194 14.1191C16.7194 14.652 17.1391 15.0841 17.6569 15.0841H21.1231L21.2503 15.0752C21.7079 15.0113 22.0606 14.6076 22.0606 14.1191Z" fill="#333333"/>
</svg>
